<?xml version="1.0" encoding="UTF-8" standalone="no"?>
<!-- Creator: CorelDRAW X6 -->

<svg
   xml:space="preserve"
   width="3.0748961in"
   height="0.2746256in"
   version="1.1"
   style="clip-rule:evenodd;fill-rule:evenodd;image-rendering:optimizeQuality;shape-rendering:geometricPrecision;text-rendering:geometricPrecision"
   viewBox="0 0 3075.0002 274.62795"
   id="svg1179"
   sodipodi:docname="underline.svg"
   inkscape:version="1.1.1 (3bf5ae0d25, 2021-09-20)"
   xmlns:inkscape="http://www.inkscape.org/namespaces/inkscape"
   xmlns:sodipodi="http://sodipodi.sourceforge.net/DTD/sodipodi-0.dtd"
   xmlns="http://www.w3.org/2000/svg"
   xmlns:svg="http://www.w3.org/2000/svg"><sodipodi:namedview
   id="namedview1181"
   pagecolor="#ffffff"
   bordercolor="#666666"
   borderopacity="1.0"
   inkscape:pageshadow="2"
   inkscape:pageopacity="0.0"
   inkscape:pagecheckerboard="0"
   inkscape:document-units="in"
   showgrid="false"
   fit-margin-top="0"
   fit-margin-left="0"
   fit-margin-right="0"
   fit-margin-bottom="0"
   inkscape:zoom="0.77058872"
   inkscape:cx="-262.78609"
   inkscape:cy="62.938891"
   inkscape:window-width="2558"
   inkscape:window-height="1038"
   inkscape:window-x="0"
   inkscape:window-y="20"
   inkscape:window-maximized="1"
   inkscape:current-layer="Layer_x0020_1" />
 <defs
   id="defs1173">
  <style
   type="text/css"
   id="style1171">
   <![CDATA[
    .fil0 {fill:#373435}
   ]]>
  </style>
 </defs>
 <g
   id="Layer_x0020_1"
   inkscape:label="Layer 1"
   inkscape:groupmode="layer"
   transform="translate(-2599,-5190.0279)">
  <metadata
   id="CorelCorpID_0Corel-Layer" />
  <path
   class="fil0"
   d="m 4923,5263 c -145,1 -404,7 -405,6 -113,-90 -259,-86 -313,-69 -35,12 -57,29 -71,44 -14,-15 -36,-32 -71,-44 -54,-18 -200,-21 -313,69 -1,1 -261,-5 -405,-6 -343,-1 -746,11 -746,14 0,3 399,14 742,12 158,-1 410,3 417,-11 0,0 0,0 0,0 35,-24 87,-54 116,-61 165,-39 223,19 246,47 -25,46 -15,93 -3,114 0,1 1,1 2,2 -22,21 -64,39 -106,-7 -28,-53 6,-94 31,-93 35,2 32,28 31,37 -1,8 -5,15 -13,19 -6,3 -14,13 -11,19 7,15 22,11 28,7 15,-8 21,-26 20,-43 -2,-19 -9,-68 -65,-55 -16,4 -60,29 -40,102 -10,-6 -44,-28 -51,-32 -19,-14 -25,-26 -31,-41 -4,-11 0,-28 9,-32 5,-2 13,-1 17,4 4,5 0,12 -3,17 -8,13 11,29 25,15 17,-19 7,-43 -2,-51 -10,-9 -33,-15 -49,-1 -9,9 -26,39 9,78 -21,-17 -59,-24 -82,-18 -33,9 -56,35 -57,71 -2,43 26,70 40,80 19,12 50,11 65,-1 31,-25 30,-92 -17,-94 -15,-1 -32,11 -37,24 -8,22 6,28 12,29 22,5 20,-29 37,-13 9,8 2,27 -8,36 -10,9 -25,10 -40,5 -23,-9 -39,-35 -38,-62 1,-26 20,-51 43,-58 14,-4 38,-6 57,2 43,18 114,76 140,87 6,4 12,6 17,8 10,3 20,4 29,4 22,0 42,-9 57,-24 16,15 36,23 57,24 10,0 19,-1 29,-4 5,-2 11,-4 17,-8 26,-11 97,-69 140,-87 18,-8 42,-6 57,-2 23,6 42,31 43,58 1,26 -15,53 -38,62 -14,5 -30,4 -40,-5 -10,-9 -16,-28 -8,-36 17,-16 15,18 37,13 6,-1 19,-8 12,-29 -5,-13 -22,-24 -37,-24 -47,2 -47,69 -17,94 14,12 46,13 65,1 14,-9 42,-37 40,-80 -2,-37 -25,-62 -57,-71 -23,-6 -61,1 -82,18 35,-40 18,-70 9,-78 -16,-15 -39,-9 -49,1 -9,8 -19,32 -2,51 14,15 32,-2 25,-15 -3,-5 -7,-13 -3,-17 3,-4 11,-6 17,-4 9,4 13,21 9,32 -6,15 -12,27 -31,41 -7,4 -41,26 -51,32 20,-73 -25,-99 -40,-102 -56,-13 -63,36 -65,55 -2,17 4,35 20,43 6,3 22,8 28,-7 3,-7 -5,-16 -11,-19 -8,-4 -12,-11 -13,-19 -1,-9 -4,-35 31,-37 25,-1 59,40 31,93 -42,46 -84,28 -106,7 0,-1 1,-1 2,-2 12,-21 21,-69 -3,-114 22,-28 81,-87 246,-47 29,7 80,37 116,61 0,0 0,0 0,0 7,14 259,11 417,11 343,1 743,-9 743,-12 0,-3 -403,-16 -746,-14 z m -789,97 c -11,-22 -11,-48 0,-72 11,23 11,49 0,72 z"
   id="path1176" />
 </g>
</svg>
